<svg width="41" height="41" viewBox="0 0 41 41" fill="none" xmlns="http://www.w3.org/2000/svg">
<path d="M33.2965 0.0746689C32.1171 0.307247 31.2025 0.812553 30.2395 1.76712C29.5174 2.48116 29.0919 3.07473 28.6108 4.02135C28.2175 4.80734 27.9447 5.52933 27.7682 6.27558L27.6238 6.85326L23.2431 6.87752L18.8545 6.90178L18.2127 7.11846C16.8568 7.58361 17.1777 7.29498 8.69696 15.7664L0.858453 23.5874L0.529617 24.2693C-0.256493 25.8655 -0.160268 27.727 0.770178 29.1709C1.27556 29.949 11.2887 39.8887 11.9949 40.3137C13.4391 41.172 15.172 41.2281 16.7287 40.4659L17.4107 40.1371L25.2333 32.2994C31.1063 26.4273 33.1279 24.3575 33.3287 24.0124C33.473 23.7556 33.7056 23.2344 33.8504 22.8491L34.0989 22.143L34.1227 16.2868C34.147 10.6393 34.1386 10.4147 33.9863 9.90937C33.7617 9.18738 33.3366 8.50555 32.799 8.00024C32.3016 7.54304 31.2105 6.94152 31.0979 7.06952C30.9214 7.26194 30.8252 8.43318 30.7771 10.912L30.7289 13.5595L30.4963 13.9845C30.2236 14.4659 29.8144 14.875 29.309 15.1398C29.0203 15.2921 28.8438 15.3243 28.202 15.3243C27.5602 15.3243 27.3837 15.2921 27.095 15.1398C26.5896 14.875 26.1805 14.4659 25.9077 13.9845C25.6989 13.5992 25.6751 13.4871 25.6751 12.7973C25.6751 11.9712 25.7793 11.6742 26.2528 11.1128C26.4934 10.8242 27.1193 10.3908 27.2958 10.3908C27.3762 10.3908 27.4 10.6878 27.4 11.7625V13.1341L27.6326 13.3666C27.9615 13.6875 28.443 13.6954 28.7639 13.3746L28.9885 13.15L29.0287 10.5828C29.0768 7.8714 29.1492 7.20546 29.5663 5.98611C30.3445 3.67583 31.8209 2.07917 33.4977 1.71818C35.295 1.33292 37.2044 2.53638 38.3039 4.75045C40.1012 8.35245 39.5075 13.3742 36.9881 15.8049C36.7153 16.0697 36.3622 16.3583 36.202 16.4466L35.905 16.6072V17.5066C35.905 18.116 35.9372 18.413 35.9932 18.413C36.1857 18.413 37.1969 17.8195 37.686 17.4183C41.0475 14.6429 42.0265 8.52187 39.8121 4.09372C39.1222 2.69784 37.9667 1.39023 36.8597 0.740604C35.8 0.122772 34.4198 -0.14201 33.2965 0.0746689ZM19.5845 18.1324C19.9054 18.2445 20.3468 18.4373 20.5555 18.5657L20.9404 18.8062L21.181 18.5737C21.6546 18.1165 22.152 18.0763 22.521 18.4775C22.9063 18.8866 22.8578 19.4241 22.4005 19.8491L22.1918 20.0335L22.4323 20.4267C23.2025 21.6699 23.2749 23.3068 22.6168 24.3575C22.2399 24.959 21.7985 25.1276 21.3011 24.8708C21.0521 24.7424 20.8195 24.3814 20.8195 24.125C20.8195 24.0367 20.9321 23.7719 21.0601 23.5234C21.5337 22.6329 21.2927 21.6223 20.3782 20.6677C19.7924 20.0499 19.1908 19.7533 18.4524 19.7131C17.9951 19.6972 17.8424 19.7211 17.6261 19.8495C16.7597 20.395 16.8961 21.3658 18.0914 23.1465C19.054 24.5746 19.5276 25.8902 19.4151 26.7967C19.2866 27.7433 18.6691 28.5857 17.7784 29.0266C17.281 29.2671 17.2086 29.2835 16.3664 29.2835C15.3954 29.2835 14.9063 29.1471 14.1679 28.6899L13.7747 28.4494L13.5902 28.6581C13.181 29.091 12.7639 29.1877 12.3464 28.9308C11.8247 28.6179 11.7929 27.9441 12.266 27.4869L12.5388 27.2221L12.3062 26.8531C11.7941 26.0341 11.5452 24.9511 11.6816 24.0848C11.8339 23.098 12.4359 22.2639 12.9814 22.2639C13.6232 22.2639 14.0889 22.9299 13.8077 23.459C13.7353 23.5954 13.6232 23.82 13.5508 23.9564C13.3504 24.3333 13.4224 25.1598 13.7031 25.7291C13.9918 26.3068 14.6499 26.9728 15.2515 27.2773C15.9096 27.614 16.72 27.6542 17.1291 27.3814C17.9554 26.828 17.8353 25.9375 16.7041 24.2207C15.6853 22.681 15.3243 21.7666 15.3322 20.7396C15.3402 19.9135 15.5088 19.4801 16.0623 18.8866C16.9208 17.9638 18.2449 17.6831 19.5845 18.1324Z" fill="#6EE755"/>
</svg>
